<svg xmlns="http://www.w3.org/2000/svg" xml:space="preserve" width="2000" height="560" data-id="lg_yRgFZRDURMlZM0vHfj" data-version="1" viewBox="0 0 2000 560"><g data-padding="20"><g transform="translate(10 13.302)scale(.9525)"><path fill="#1c1c1c" d="m1034.869 1.232-140.672 39.2v9.184c0 9.912-29.736 27.776-56.448 37.52L828.9 90.44v213.864c0 70.952 35.448 137.368 102.48 191.968a425.6 425.6 0 0 0 101.976 61.376l5.992 2.352 5.992-2.352c2.072-.84 51.744-20.552 101.92-61.376 67.088-54.6 102.592-120.96 102.592-191.968V90.384l-8.904-3.136c-26.712-9.8-56.448-27.664-56.448-37.576v-9.24L1039.349 0Z"/><path fill="none" stroke="#fff" stroke-width="2" d="m170.991-22.252-25.12 7v1.64c0 1.77-5.31 4.96-10.08 6.7l-1.58.59v38.19c0 12.67 6.33 24.53 18.3 34.28a76 76 0 0 0 18.21 10.96l1.07.42 1.07-.42c.37-.15 9.24-3.67 18.2-10.96 11.98-9.75 18.32-21.6 18.32-34.28v-38.2l-1.59-.56c-4.77-1.75-10.08-4.94-10.08-6.71v-1.65l-25.92-7.22Z" paint-order="stroke" transform="matrix(5.25 0 0 5.34 137.447 133.19)"/><rect width="311.923" height="77.97" x="483.444" y="-158.985" fill="none" rx="0" ry="0" transform="translate(400.51 289.59)"/><path fill="#fff" d="M899.925 190.77h-10.66v-50.16h14.01l14.45 29.8 3.83 10.49h.25l-1.45-12.87v-27.42h10.66v50.16h-14.11l-14.39-29.81-3.62-9.56h-.35l1.38 14.91Zm62.1.69q-6.76 0-12.07-3.07-5.32-3.07-8.37-8.9t-3.05-14.15q0-8.17 2.97-13.9 2.96-5.73 8.21-8.75 5.24-3.02 12.04-3.02 4.96 0 9.31 1.94 4.35 1.93 7.09 5.69t2.92 9.31h-10.56q-.24-.89-.79-2.01-.56-1.13-1.57-2.16-1.02-1.04-2.57-1.69-1.56-.66-3.8-.66-2.79 0-5.02.99-2.22.98-3.79 2.93t-2.4 4.85q-.83 2.89-.83 6.72 0 4.97 1.35 8.42 1.34 3.45 4.12 5.25 2.78 1.79 7.09 1.79 1.59 0 3.28-.26t3.2-.81q1.52-.55 2.56-1.41v-6.04h-8.66v-9.11h19.01v21.15q-4.21 3.14-8.96 5.02-4.74 1.88-10.71 1.88m32.92-27.15h-8.18l2.79-26.05h9.87Zm43.09 26.46h-31.36v-50.16h30.74v9.9h-23.29l3.34-2.56v14.39l-3.34-2.17h20.97v9.86h-20.63l3-2.13v15.49l-3.34-2.59h23.91Zm27.85 0h-10.97v-36.09q0-2.07.76-3 .75-.93 2.31-1.17h-15.46v-9.9h35.67v9.9h-12.31Zm29.8 0h-11.08v-50.16h11.08Zm30.64.72q-7.28 0-12.42-3.12t-7.86-8.97q-2.73-5.85-2.73-13.95 0-7.94 2.66-13.72 2.65-5.78 7.81-8.92t12.65-3.14q5.41 0 9.78 2.07 4.36 2.07 6.91 6.06 2.56 3.98 2.52 9.75h-11.21q-.04-2.73-1.21-4.39-1.17-1.65-3.16-2.39-1.98-.75-4.46-.75-3.38 0-5.87 1.66-2.48 1.66-3.84 5.12-1.37 3.47-1.37 8.89 0 5.28 1.4 8.71t3.9 5.09q2.5 1.65 5.81 1.65 2.83 0 4.8-.77 1.96-.78 3.02-2.25 1.05-1.46 1.05-3.57h11.25q.03 5.18-2.56 8.99t-7 5.88q-4.42 2.07-9.87 2.07m64.61-.72h-11.01v-50.16h11.01Zm-27.74 0h-11v-50.16h11Zm18.53-20.8h-21.77v-9.87h21.8Z"/><rect width="86.974" height="22.6" x="595.918" y="-131.3" fill="none" rx="0" ry="0" transform="translate(400.5 182.74)"/><path fill="#fff" d="M1002.515 68.67q-1.66 0-2.83-.66t-1.79-1.91q-.62-1.26-.62-3.04 0-1.84.66-3.1.66-1.27 1.86-1.92t2.81-.65q1.56 0 2.62.59 1.07.59 1.62 1.74t.55 2.83q0 .21-.02.49-.01.27-.03.62h-7.02q.11 1.36.66 1.99.55.62 1.54.62.82 0 1.24-.36.43-.36.51-.95h2.98q-.09 1.13-.69 1.97-.59.83-1.62 1.29-1.03.45-2.43.45m-.92-6.76h2.81q-.04-1.05-.51-1.57-.46-.52-1.42-.52-1.13 0-1.65.81-.52.8-.53 2.28.08-.57.39-.78.31-.22.91-.22m11.47 6.78q-1.41 0-2.43-.41-1.01-.41-1.57-1.24-.56-.84-.62-2.13h3.03q.09.8.51 1.18.43.38 1.15.38.36 0 .69-.08.33-.09.54-.3.21-.22.21-.6 0-.31-.16-.5-.15-.2-.45-.33-.29-.14-.71-.25-.42-.12-.95-.28-.94-.28-1.76-.68-.81-.4-1.31-1.07t-.5-1.76q0-1.63 1.19-2.42 1.2-.79 3.14-.79 1.14 0 2.05.31t1.5 1.1q.6.79.77 2.23l-3.01-.02q-.09-.64-.31-.95-.22-.32-.5-.42-.28-.11-.58-.11-.34 0-.62.11-.27.11-.43.32t-.16.53q0 .38.24.65t.73.48q.49.2 1.25.41.5.13 1.12.32.63.19 1.2.53.58.34.95.92.38.58.38 1.5 0 1.6-1.23 2.49-1.23.88-3.35.88m9.92-.03q-1.35 0-2.1-.68-.75-.69-.76-2.13l-.03-4.88q0-.38.21-.62.22-.24.61-.31l-.82-1.99v-.33l.57-3.23h2.53v10.4q0 .7.17.97.18.27.68.27t.83-.02q.34-.02.64-.07v2.45q-.36.13-1.08.15-.71.02-1.45.02m2.46-8.62h-6.51v-2.42h6.51Zm3.15 8.63q-.72 0-1.23-.52-.51-.53-.51-1.36 0-.82.51-1.34t1.23-.52 1.23.52.51 1.34q0 .83-.51 1.36-.51.52-1.23.52m16.12-.15h-10.14q.66-.83 1.27-1.61t1.18-1.52q.58-.74 1.11-1.44l1.05-1.36q.95-1.24 1.53-2 .58-.77.85-1.33.27-.57.27-1.18 0-.71-.41-1.23-.4-.53-1.46-.52-.66 0-1.15.31t-.69.96q-.2.64 0 1.64h-2.88q-.26-1.97.29-3.19.56-1.23 1.72-1.8 1.17-.57 2.74-.57 1.58 0 2.64.51t1.59 1.42q.53.9.53 2.09 0 1.15-.37 2.09-.37.93-.92 1.71-.54.77-1.06 1.47-.42.55-.84 1.11l-.84 1.1-.84 1.1q.33-.34.75-.44.42-.11 1.17-.11h2.91Zm7.01.22q-1.6 0-2.82-.77-1.21-.78-1.89-2.45-.68-1.68-.68-4.36 0-2.6.68-4.25t1.89-2.43q1.22-.79 2.82-.79 1.61 0 2.81.79 1.21.78 1.88 2.43.68 1.65.68 4.25 0 2.68-.68 4.36-.67 1.67-1.88 2.45-1.2.77-2.81.77m0-2.87q.68 0 1.16-.43.49-.44.75-1.47t.26-2.79q0-1.73-.26-2.74t-.75-1.44q-.48-.44-1.16-.44t-1.17.44q-.49.43-.75 1.44t-.26 2.74q0 1.76.26 2.79t.75 1.47q.49.43 1.17.43m16.43 2.65h-10.14q.66-.83 1.27-1.61t1.18-1.52q.58-.74 1.11-1.44l1.05-1.36q.95-1.24 1.53-2 .58-.77.85-1.33.27-.57.27-1.18 0-.71-.41-1.23-.4-.53-1.46-.52-.66 0-1.15.31t-.69.96q-.2.64 0 1.64h-2.88q-.26-1.97.29-3.19.56-1.23 1.72-1.8 1.17-.57 2.74-.57 1.58 0 2.64.51t1.59 1.42q.53.9.53 2.09 0 1.15-.37 2.09-.37.93-.92 1.71-.54.77-1.06 1.47-.42.55-.84 1.11l-.84 1.1-.84 1.1q.33-.34.75-.44.42-.11 1.17-.11h2.91Z"/><path fill="#fff" d="M1078.165 68.52h-2.83v-2.6h-7.2l5.12-11.94h4.94l-.05.04.01 9.36h1.86v2.54h-1.85Zm-5.51-6.25-.68 1.52q.2-.23.43-.32.24-.09.63-.09h3.2q-.55 0-.73-.36-.17-.36-.17-.99v-2.82l.05-3.33-1.42 3.43ZM928.023 322.395c0 3.99 3.135 7.125 7.125 7.125s7.125-3.135 7.125-7.125-3.135-7.125-7.125-7.125-7.125 3.135-7.125 7.125m11.685 0c0 2.565-1.995 4.56-4.56 4.56s-4.56-1.995-4.56-4.56 1.995-4.56 4.56-4.56 4.56 1.995 4.56 4.56m152.76 7.98H958.233v40.185h134.235Zm-2.565 37.62H960.798V332.94h129.105Zm-131.67 35.055h36.48v-27.645h-36.48Zm2.565-25.08h31.065v22.515h-31.065Zm42.18-.855h88.35v2.565h-88.35Zm0 6.84h88.35v2.565h-88.35Zm0 7.125h88.35v2.565h-88.35Zm0 7.125h51.3v2.565h-51.3Zm-14.535 53.865h74.385v7.125h-74.385Z"/><path fill="#fff" d="M920.898 309.57h209.474v31.065h5.13V309.57c0-7.98-6.554-14.535-14.534-14.535h-190.95c-7.98 0-14.536 6.555-14.536 14.535v108.3c0 7.98 6.555 14.535 14.536 14.535h68.685l-1.14 16.53h5.13l1.424-16.53h43.036l1.425 16.53h5.13l-1.425-16.53h45.315v-17.1h-176.7Z"/><path fill="#fff" d="M1143.483 343.2h-26.22c-9.406 0-16.815 7.695-16.815 16.815V440.1c0 9.405 7.695 16.815 16.815 16.815h26.22c9.405 0 16.815-7.695 16.815-16.815v-80.085c0-9.12-7.696-16.815-16.816-16.815m-39.9 92.625v-74.67h53.296v74.67Zm21.946-84.36h9.405c.855 0 1.71.855 1.71 1.71s-.855 1.71-1.71 1.71h-9.405c-.855 0-1.71-.855-1.71-1.71s.57-1.71 1.71-1.71m9.69 93.48c0 1.995-1.71 3.705-3.705 3.705h-1.995c-1.995 0-3.705-1.71-3.705-3.705s1.71-3.705 3.704-3.705h1.995c1.71-.285 3.705 1.425 3.705 3.705"/><path fill="#fff" d="M1105.578 393.36h49.02v-19.095h-49.02Zm2.28-16.815h44.175v14.25h-44.176Zm21.375 17.955h-23.94v19.095h23.94Zm-2.28 16.815h-18.81v-14.25h18.81Zm3.705 2.28h23.94V394.5h-23.94Zm2.565-16.53h18.81v14.25h-18.81Zm-3.42-24.51c2.85 0 5.13-2.28 5.13-5.13s-2.566-5.13-5.13-5.13-5.13 2.28-5.13 5.13 2.28 5.13 5.13 5.13m0-7.695a2.554 2.554 0 0 1 2.565 2.565 2.554 2.554 0 0 1-2.565 2.565 2.554 2.554 0 0 1-2.566-2.565c0-1.425.856-2.565 2.566-2.565m-24.225 51.3h49.02v2.565h-49.02Zm0 4.845h49.02v2.565h-49.02Zm0 4.56h49.02v2.565h-49.02Zm0 4.56h28.784v2.565h-28.784Z"/><path stroke="#fff" stroke-width="1.7" d="M911.659 100.54h255.932M914.469 236.82H1170.4"/></g><path fill="transparent" stroke="transparent" d="M789.5 0h421v560h-421z"/></g></svg>